<svg xmlns="http://www.w3.org/2000/svg" width="235.35" height="43.95" viewBox="0 0 235.35 43.95"><path d="M25,43.2H12.8q-6.56,0-9.68-3.4A12.51,12.51,0,0,1,0,31V17a13.07,13.07,0,0,1,.8-4.78A8.62,8.62,0,0,1,3.15,8.8l6.5-5.45A10.09,10.09,0,0,1,13.6,1.4,21.89,21.89,0,0,1,19.25.75h12.2a2.39,2.39,0,0,1,1.75.55,2.39,2.39,0,0,1,.55,1.75V9.1a3.22,3.22,0,0,1-.17,1.1,1.93,1.93,0,0,1-.53.75l-6.5,5.4a1.66,1.66,0,0,1-.63.35,2.73,2.73,0,0,1-.92.15H18.85V25.3a1.62,1.62,0,0,0,.65,1.47,3.43,3.43,0,0,0,1.9.43H31.45a2,2,0,0,1,2.3,2.3v6a3.22,3.22,0,0,1-.17,1.1,1.93,1.93,0,0,1-.53.75l-6.5,5.4a1.66,1.66,0,0,1-.63.35A2.73,2.73,0,0,1,25,43.2Zm6.45-6a1.53,1.53,0,0,0,1.8-1.8v-6a1.53,1.53,0,0,0-1.8-1.8h-10a3.73,3.73,0,0,1-2.3-.58,2.14,2.14,0,0,1-.75-1.82V13.4a2.32,2.32,0,0,1,.75-1.88,3.59,3.59,0,0,1,2.3-.62H31.45a1.93,1.93,0,0,0,1.38-.42,1.93,1.93,0,0,0,.42-1.38v-6a1.93,1.93,0,0,0-.42-1.38,1.93,1.93,0,0,0-1.38-.42H19.25Q13,1.25,10,3.77C8,5.46,7,8,7,11.5V27.05c0,3.47,1,6,3,7.7s5.11,2.5,9.28,2.5Zm-2.75-5v.5H20.35c-3.23,0-5.38-.5-6.43-1.5s-1.57-2.65-1.57-4.95v-14q0-3.56,1.6-5.05t6.4-1.5H28.7v.5H20.35c-2.93,0-4.92.46-6,1.37s-1.55,2.48-1.55,4.68v14q0,3.25,1.5,4.6t6,1.35Z" fill="#3f3f3f"/><path d="M59.25,40.8a12.1,12.1,0,0,1-4.9,2.32,32.78,32.78,0,0,1-8.1.83,26.08,26.08,0,0,1-8-1,12.65,12.65,0,0,1-4.89-2.72,8.91,8.91,0,0,1-2.45-3.9,15.11,15.11,0,0,1-.68-4.55V16.2a13.76,13.76,0,0,1,.65-4.28A7.25,7.25,0,0,1,33.2,8.55l6.5-5.4A12.2,12.2,0,0,1,44.58.83,32.2,32.2,0,0,1,52.7,0a33.3,33.3,0,0,1,8,.8A12.91,12.91,0,0,1,65.62,3a7.23,7.23,0,0,1,2.43,3.4,13.89,13.89,0,0,1,.65,4.33V27.8a13.48,13.48,0,0,1-.65,4.25A7.25,7.25,0,0,1,65.7,35.4Zm9-13v-17a12.49,12.49,0,0,0-.67-4.17,7.1,7.1,0,0,0-2.41-3.23,12.58,12.58,0,0,0-4.74-2.1A32.73,32.73,0,0,0,52.7.5a33,33,0,0,0-7.7.75,12.72,12.72,0,0,0-4.78,2.1,7.19,7.19,0,0,0-2.39,3.23,12.24,12.24,0,0,0-.68,4.17V27.8A12.3,12.3,0,0,0,37.83,32a7,7,0,0,0,2.39,3.19A12.88,12.88,0,0,0,45,37.25a33,33,0,0,0,7.7.75,32.73,32.73,0,0,0,7.68-.75,12.74,12.74,0,0,0,4.74-2.08A6.89,6.89,0,0,0,67.53,32,12.55,12.55,0,0,0,68.2,27.8Zm-5.45-1.15a6.16,6.16,0,0,1-2.15,4.87q-2.15,1.88-8,1.88t-8-1.88a6.22,6.22,0,0,1-2.1-4.87V11.9A6.24,6.24,0,0,1,44.65,7q2.1-1.87,8-1.87T60.6,7a6.18,6.18,0,0,1,2.15,4.88Zm-19.7,0a5.68,5.68,0,0,0,2,4.52c1.33,1.16,3.85,1.73,7.55,1.73s6.23-.57,7.6-1.73a5.6,5.6,0,0,0,2-4.52V11.9a5.59,5.59,0,0,0-2-4.52q-2.06-1.72-7.6-1.73T45.05,7.38a5.67,5.67,0,0,0-2,4.52ZM48.5,26V12.55a2.14,2.14,0,0,1,.75-1.63c.5-.44,1.65-.67,3.45-.67s2.95.23,3.45.67a2.14,2.14,0,0,1,.75,1.63V26a2.13,2.13,0,0,1-.75,1.67c-.5.45-1.65.68-3.45.68s-3-.23-3.45-.68A2.13,2.13,0,0,1,48.5,26Zm.5,0a1.93,1.93,0,0,0,.2.88,1.55,1.55,0,0,0,.75.62V18a1.93,1.93,0,0,0-.2-.88,1.3,1.3,0,0,0-.75-.57Z" fill="#3f3f3f"/><path d="M84.25,37.3l-6.5,5.4a1.66,1.66,0,0,1-.63.35,2.73,2.73,0,0,1-.92.15H68.7a2,2,0,0,1-2.3-2.3V8.5a3.22,3.22,0,0,1,.17-1.1,1.93,1.93,0,0,1,.53-.75L73.55,1.2a2,2,0,0,1,.67-.32,3.12,3.12,0,0,1,.93-.13h5.2a4.42,4.42,0,0,1,1.85.35,5,5,0,0,1,1.5,1.15l3.45,4,6-5a2,2,0,0,1,.67-.32A3.12,3.12,0,0,1,94.8.75h7.5a2.39,2.39,0,0,1,1.75.55,2.39,2.39,0,0,1,.55,1.75v32.4a3,3,0,0,1-.18,1.1,1.81,1.81,0,0,1-.52.75l-6.5,5.4a1.66,1.66,0,0,1-.63.35,2.73,2.73,0,0,1-.92.15h-7.5a2,2,0,0,1-2.3-2.3V35L85,33.6v1.85a3,3,0,0,1-.18,1.1A1.81,1.81,0,0,1,84.25,37.3Zm-1.6,0a1.54,1.54,0,0,0,1.8-1.8V19L93,29.3v6.15a1.53,1.53,0,0,0,1.8,1.8h7.5a1.54,1.54,0,0,0,1.8-1.8V3.05a1.89,1.89,0,0,0-.43-1.38,1.89,1.89,0,0,0-1.37-.42H94.8a1.93,1.93,0,0,0-1.38.42A1.93,1.93,0,0,0,93,3.05V13.7L83.3,2.6a3.89,3.89,0,0,0-1.33-1,4,4,0,0,0-1.62-.3h-5.2a1.93,1.93,0,0,0-1.38.42,1.93,1.93,0,0,0-.42,1.38v32.4a1.53,1.53,0,0,0,1.8,1.8ZM80,6.15l18.4,20.7V5.75h.5v27h-.5V27.6L79.45,6.4l-.13-.1a.28.28,0,0,0-.12,0,.1.1,0,0,0-.08,0,.36.36,0,0,0,0,.1V32.75h-.5V6.3a.54.54,0,0,1,.2-.45.66.66,0,0,1,.4-.15.6.6,0,0,1,.35.1A3.14,3.14,0,0,1,80,6.15Z" fill="#3f3f3f"/><path d="M120.35,43.2h-8.1a2,2,0,0,1-2.3-2.3v-24H103.1a2.37,2.37,0,0,1-1.75-.55,2.39,2.39,0,0,1-.55-1.75V8.5A3.22,3.22,0,0,1,101,7.4a1.83,1.83,0,0,1,.53-.75L108,1.2a2,2,0,0,1,.67-.32,3.08,3.08,0,0,1,.93-.13H136a2.39,2.39,0,0,1,1.75.55,2.39,2.39,0,0,1,.55,1.75V9.1a3,3,0,0,1-.18,1.1,1.81,1.81,0,0,1-.52.75l-6.5,5.4a1.66,1.66,0,0,1-.63.35,2.73,2.73,0,0,1-.92.15h-.4v18.6a3,3,0,0,1-.18,1.1,1.81,1.81,0,0,1-.52.75l-6.5,5.4a1.74,1.74,0,0,1-.63.35A2.73,2.73,0,0,1,120.35,43.2Zm6.45-6a1.54,1.54,0,0,0,1.8-1.8V10.9H136a1.89,1.89,0,0,0,1.37-.42,1.89,1.89,0,0,0,.43-1.38v-6a1.89,1.89,0,0,0-.43-1.38A1.89,1.89,0,0,0,136,1.25h-26.4a1.93,1.93,0,0,0-1.38.42,1.93,1.93,0,0,0-.42,1.38V9.1a1.93,1.93,0,0,0,.42,1.38,1.93,1.93,0,0,0,1.38.42h7.35V35.45a1.53,1.53,0,0,0,1.8,1.8Zm-4.3-4.5V6.25H112.25v-.5h21v.5H123v26.5Z" fill="#3f3f3f"/><path d="M144.9,42.7a1.66,1.66,0,0,1-.63.35,2.73,2.73,0,0,1-.92.15H136a2,2,0,0,1-2.3-2.3V27.7a15.69,15.69,0,0,1,.47-3.53,38.33,38.33,0,0,1,1.53-4.67L140,8.2a3.14,3.14,0,0,1,.37-.78,4.51,4.51,0,0,1,.48-.57l.05,0,6.4-5.35a2.75,2.75,0,0,1,.95-.53A4.34,4.34,0,0,1,149.5.75H163a3.3,3.3,0,0,1,1.87.48A2.7,2.7,0,0,1,165.9,2.7l4.35,11.35a36,36,0,0,1,1.52,4.68,15,15,0,0,1,.48,3.52v13.2a3,3,0,0,1-.18,1.1,1.81,1.81,0,0,1-.52.75l-6.5,5.4a1.66,1.66,0,0,1-.63.35,2.73,2.73,0,0,1-.92.15H156a2.57,2.57,0,0,1-1.85-.58,2.26,2.26,0,0,1-.6-1.72V34.4h-1.4v1.05a3,3,0,0,1-.18,1.1,1.81,1.81,0,0,1-.52.75Zm6.7-7.25v-7h8.85v7a1.81,1.81,0,0,0,.47,1.38,2.2,2.2,0,0,0,1.48.42H170a1.54,1.54,0,0,0,1.8-1.8V22.25a14.65,14.65,0,0,0-.48-3.45,36,36,0,0,0-1.47-4.55L165.45,2.9a2.34,2.34,0,0,0-.93-1.25,2.82,2.82,0,0,0-1.57-.4H149.5a3,3,0,0,0-1.63.4A2.37,2.37,0,0,0,147,2.9L142.6,14.25a38,38,0,0,0-1.48,4.55,15.12,15.12,0,0,0-.47,3.45v13.2a1.53,1.53,0,0,0,1.8,1.8h7.35a1.54,1.54,0,0,0,1.8-1.8ZM166,32.75v-8.6h-19.5v8.6H146V22.1a13.86,13.86,0,0,1,.22-2.58,14.36,14.36,0,0,1,.63-2.27l3.2-8.2a10.31,10.31,0,0,1,1.25-2.35,2.81,2.81,0,0,1,2.4-1h4.9a2.66,2.66,0,0,1,2.32,1,12.05,12.05,0,0,1,1.28,2.4l3.45,8.15a14.34,14.34,0,0,1,.62,2.27,13.83,13.83,0,0,1,.23,2.58V32.75ZM146.45,22.1v1.55H166V22.1a13,13,0,0,0-.23-2.5,16,16,0,0,0-.57-2.15L161.7,9.3a12.85,12.85,0,0,0-1.15-2.18,2.26,2.26,0,0,0-2-.87h-4.9a2.37,2.37,0,0,0-2.1.87,11.11,11.11,0,0,0-1.1,2.13l-3.2,8.2a16,16,0,0,0-.58,2.15A13.07,13.07,0,0,0,146.45,22.1Zm8-10.35a1.82,1.82,0,0,1,.42-.65.79.79,0,0,1,.53-.2h1.25a.77.77,0,0,1,.52.2,1.83,1.83,0,0,1,.43.65l2.35,7.6H152.1Z" fill="#3f3f3f"/><path d="M194.2,43.2H182q-6.56,0-9.68-3.4A12.51,12.51,0,0,1,169.2,31V17a12.87,12.87,0,0,1,.8-4.78,8.52,8.52,0,0,1,2.35-3.37l6.5-5.45a10.09,10.09,0,0,1,4-1.95,21.89,21.89,0,0,1,5.65-.65h12.2a2.39,2.39,0,0,1,1.75.55A2.43,2.43,0,0,1,203,3.05V9.1a3,3,0,0,1-.18,1.1,1.81,1.81,0,0,1-.52.75l-6.5,5.4a1.74,1.74,0,0,1-.63.35,2.73,2.73,0,0,1-.92.15h-6.15V25.3a1.6,1.6,0,0,0,.65,1.47,3.4,3.4,0,0,0,1.9.43h10.05a2.39,2.39,0,0,1,1.75.55A2.43,2.43,0,0,1,203,29.5v6a3,3,0,0,1-.18,1.1,1.81,1.81,0,0,1-.52.75l-6.5,5.4a1.74,1.74,0,0,1-.63.35A2.73,2.73,0,0,1,194.2,43.2Zm6.45-6a1.54,1.54,0,0,0,1.8-1.8v-6a1.54,1.54,0,0,0-1.8-1.8H190.6a3.71,3.71,0,0,1-2.3-.58,2.14,2.14,0,0,1-.75-1.82V13.4a2.32,2.32,0,0,1,.75-1.88,3.57,3.57,0,0,1,2.3-.62h10.05a1.89,1.89,0,0,0,1.37-.42,1.89,1.89,0,0,0,.43-1.38v-6A1.89,1.89,0,0,0,202,1.67a1.89,1.89,0,0,0-1.37-.42h-12.2q-6.25,0-9.28,2.52c-2,1.69-3,4.26-3,7.73V27.05c0,3.47,1,6,3,7.7s5.11,2.5,9.28,2.5Zm-2.75-5v.5h-8.35q-4.86,0-6.43-1.5t-1.57-4.95v-14q0-3.56,1.6-5.05c1.06-1,3.2-1.5,6.4-1.5h8.35v.5h-8.35q-4.41,0-6,1.37c-1,.92-1.55,2.48-1.55,4.68v14q0,3.25,1.5,4.6t6,1.35Z" fill="#3f3f3f"/><path d="M217.45,43.2h-8.1a2,2,0,0,1-2.3-2.3v-24H200.2a2.37,2.37,0,0,1-1.75-.55,2.39,2.39,0,0,1-.55-1.75V8.5a3.22,3.22,0,0,1,.17-1.1,1.83,1.83,0,0,1,.53-.75l6.45-5.45a1.9,1.9,0,0,1,.67-.32,3.08,3.08,0,0,1,.93-.13h26.4a2.39,2.39,0,0,1,1.75.55,2.39,2.39,0,0,1,.55,1.75V9.1a3,3,0,0,1-.18,1.1,1.81,1.81,0,0,1-.52.75l-6.5,5.4a1.74,1.74,0,0,1-.63.35,2.73,2.73,0,0,1-.92.15h-.4v18.6a3,3,0,0,1-.18,1.1,1.81,1.81,0,0,1-.52.75L219,42.7a1.74,1.74,0,0,1-.63.35A2.73,2.73,0,0,1,217.45,43.2Zm6.45-6a1.54,1.54,0,0,0,1.8-1.8V10.9h7.35a1.89,1.89,0,0,0,1.37-.42,1.89,1.89,0,0,0,.43-1.38v-6a1.89,1.89,0,0,0-.43-1.38,1.89,1.89,0,0,0-1.37-.42h-26.4a1.91,1.91,0,0,0-1.38.42,1.93,1.93,0,0,0-.42,1.38V9.1a1.93,1.93,0,0,0,.42,1.38,1.91,1.91,0,0,0,1.38.42H214V35.45a1.53,1.53,0,0,0,1.8,1.8Zm-4.3-4.5V6.25H209.35v-.5h21v.5H220.1v26.5Z" fill="#3f3f3f"/><path d="M31.7,37.25H19.5q-6.25,0-9.28-2.5c-2-1.67-3-4.23-3-7.7V11.5c0-3.47,1-6,3-7.73s5.11-2.52,9.28-2.52H31.7a1.93,1.93,0,0,1,1.38.42,1.93,1.93,0,0,1,.42,1.38V9.1a1.93,1.93,0,0,1-.42,1.38,1.93,1.93,0,0,1-1.38.42h-10a3.59,3.59,0,0,0-2.3.62,2.32,2.32,0,0,0-.75,1.88V25.3a2.14,2.14,0,0,0,.75,1.82,3.73,3.73,0,0,0,2.3.58H31.7a1.53,1.53,0,0,1,1.8,1.8v6a1.53,1.53,0,0,1-1.8,1.8Zm-2.75-5H20.6q-4.5,0-6-1.35t-1.5-4.6v-14q0-3.3,1.55-4.68c1-.91,3-1.37,6-1.37H29v-.5H20.6q-4.8,0-6.4,1.5T12.6,12.3v14q0,3.45,1.57,4.95c1.05,1,3.2,1.5,6.43,1.5H29Z" fill="#fff"/><path d="M68.4,27.8A12.55,12.55,0,0,1,67.73,32a6.94,6.94,0,0,1-2.4,3.19,12.87,12.87,0,0,1-4.75,2.08A32.73,32.73,0,0,1,52.9,38a33,33,0,0,1-7.7-.75,12.88,12.88,0,0,1-4.78-2.08A7,7,0,0,1,38,32a12.3,12.3,0,0,1-.68-4.18v-17A12.24,12.24,0,0,1,38,6.58a7.19,7.19,0,0,1,2.39-3.23,12.72,12.72,0,0,1,4.78-2.1A33,33,0,0,1,52.9.5a32.73,32.73,0,0,1,7.68.75,12.71,12.71,0,0,1,4.75,2.1,7.14,7.14,0,0,1,2.4,3.23,12.49,12.49,0,0,1,.67,4.17ZM63,26.65V11.9A6.18,6.18,0,0,0,60.8,7q-2.14-1.87-8-1.87T44.85,7a6.24,6.24,0,0,0-2.1,4.88V26.65a6.22,6.22,0,0,0,2.1,4.87Q47,33.4,52.8,33.4t8-1.88A6.16,6.16,0,0,0,63,26.65Zm-19.7,0V11.9a5.67,5.67,0,0,1,2-4.52q2-1.72,7.55-1.73t7.6,1.73a5.59,5.59,0,0,1,2.05,4.52V26.65a5.6,5.6,0,0,1-2.05,4.52C59,32.33,56.5,32.9,52.8,32.9s-6.22-.57-7.55-1.73A5.68,5.68,0,0,1,43.25,26.65ZM48.7,26a2.13,2.13,0,0,0,.75,1.67c.5.45,1.65.68,3.45.68s3-.23,3.45-.68A2.13,2.13,0,0,0,57.1,26V12.55a2.14,2.14,0,0,0-.75-1.63c-.5-.44-1.65-.67-3.45-.67s-2.95.23-3.45.67a2.14,2.14,0,0,0-.75,1.63Z" fill="#fff"/><path d="M82.55,37.25h-7.5a1.53,1.53,0,0,1-1.8-1.8V3.05a1.93,1.93,0,0,1,.42-1.38,1.93,1.93,0,0,1,1.38-.42h5.2a4.05,4.05,0,0,1,1.63.3A3.86,3.86,0,0,1,83.2,2.6l9.7,11.1V3.05a1.89,1.89,0,0,1,.43-1.38,1.89,1.89,0,0,1,1.37-.42h7.5a1.93,1.93,0,0,1,1.38.42A1.93,1.93,0,0,1,104,3.05v32.4a1.53,1.53,0,0,1-1.8,1.8H94.7a1.54,1.54,0,0,1-1.8-1.8V29.3L84.35,19v16.5a1.54,1.54,0,0,1-1.8,1.8Zm-2.7-31.1a3.14,3.14,0,0,0-.4-.35.6.6,0,0,0-.35-.1.66.66,0,0,0-.4.15.54.54,0,0,0-.2.45V32.75H79V6.4a.36.36,0,0,1,0-.1.1.1,0,0,1,.08,0,.28.28,0,0,1,.12,0l.13.1,18.9,21.2v5.15h.5v-27h-.5v21.1Z" fill="#fff"/><path d="M126.9,37.25h-8.1a1.53,1.53,0,0,1-1.8-1.8V10.9h-7.35a1.93,1.93,0,0,1-1.38-.42,1.93,1.93,0,0,1-.42-1.38v-6a1.93,1.93,0,0,1,.42-1.38,1.93,1.93,0,0,1,1.38-.42h26.4a1.89,1.89,0,0,1,1.37.42,1.89,1.89,0,0,1,.43,1.38V9.1a1.89,1.89,0,0,1-.43,1.38,1.89,1.89,0,0,1-1.37.42H128.7V35.45a1.54,1.54,0,0,1-1.8,1.8Zm-4.3-4.5h.5V6.25h10.25v-.5h-21v.5H122.6Z" fill="#fff"/><path d="M151.4,35.45a1.54,1.54,0,0,1-1.8,1.8h-7.35a1.53,1.53,0,0,1-1.8-1.8V22.25a15.12,15.12,0,0,1,.47-3.45,38,38,0,0,1,1.48-4.55L146.75,2.9a2.37,2.37,0,0,1,.92-1.25,3,3,0,0,1,1.63-.4h13.45a2.82,2.82,0,0,1,1.57.4,2.34,2.34,0,0,1,.93,1.25l4.35,11.35a36,36,0,0,1,1.47,4.55,14.65,14.65,0,0,1,.48,3.45v13.2a1.54,1.54,0,0,1-1.8,1.8H162.2a2.2,2.2,0,0,1-1.48-.42,1.81,1.81,0,0,1-.47-1.38v-7H151.4Zm14.35-2.7h.5V22.1a13.83,13.83,0,0,0-.23-2.58,14.34,14.34,0,0,0-.62-2.27L162,9.1a12.05,12.05,0,0,0-1.28-2.4,2.66,2.66,0,0,0-2.32-1h-4.9a2.81,2.81,0,0,0-2.4,1,10.31,10.31,0,0,0-1.25,2.35l-3.2,8.2a14.36,14.36,0,0,0-.63,2.27,13.86,13.86,0,0,0-.22,2.58V32.75h.5v-8.6h19.5ZM146.25,22.1a13.07,13.07,0,0,1,.22-2.5,16,16,0,0,1,.58-2.15l3.2-8.2a11.11,11.11,0,0,1,1.1-2.13,2.37,2.37,0,0,1,2.1-.87h4.9a2.26,2.26,0,0,1,2,.87A12.85,12.85,0,0,1,161.5,9.3L165,17.45a16,16,0,0,1,.57,2.15,13,13,0,0,1,.23,2.5v1.55h-19.5Zm8-10.35-2.35,7.6h7.85l-2.35-7.6a1.83,1.83,0,0,0-.43-.65.77.77,0,0,0-.52-.2H155.2a.79.79,0,0,0-.53.2A1.82,1.82,0,0,0,154.25,11.75Z" fill="#fff"/><path d="M200.65,37.25h-12.2q-6.25,0-9.28-2.5c-2-1.67-3-4.23-3-7.7V11.5c0-3.47,1-6,3-7.73s5.11-2.52,9.28-2.52h12.2a1.89,1.89,0,0,1,1.37.42,1.89,1.89,0,0,1,.43,1.38V9.1a1.89,1.89,0,0,1-.43,1.38,1.89,1.89,0,0,1-1.37.42H190.6a3.59,3.59,0,0,0-2.3.62,2.32,2.32,0,0,0-.75,1.88V25.3a2.14,2.14,0,0,0,.75,1.82,3.73,3.73,0,0,0,2.3.58h10.05a1.54,1.54,0,0,1,1.8,1.8v6a1.54,1.54,0,0,1-1.8,1.8Zm-2.75-5h-8.35q-4.5,0-6-1.35t-1.5-4.6v-14q0-3.3,1.55-4.68c1-.91,3-1.37,6-1.37h8.35v-.5h-8.35q-4.8,0-6.4,1.5t-1.6,5.05v14q0,3.45,1.57,4.95c1,1,3.2,1.5,6.43,1.5h8.35Z" fill="#fff"/><path d="M224.1,37.25H216a1.53,1.53,0,0,1-1.8-1.8V10.9h-7.35a1.91,1.91,0,0,1-1.38-.42,1.93,1.93,0,0,1-.42-1.38v-6a1.93,1.93,0,0,1,.42-1.38,1.91,1.91,0,0,1,1.38-.42h26.4a1.89,1.89,0,0,1,1.37.42,1.89,1.89,0,0,1,.43,1.38V9.1a1.89,1.89,0,0,1-.43,1.38,1.89,1.89,0,0,1-1.37.42H225.9V35.45a1.54,1.54,0,0,1-1.8,1.8Zm-4.3-4.5h.5V6.25h10.25v-.5h-21v.5H219.8Z" fill="#fff"/></svg>