<svg xmlns="http://www.w3.org/2000/svg" width="373.68" height="47.88" viewBox="0 0 373.68 47.88"><path d="M19.81,39.55,13.31,45a1.55,1.55,0,0,1-.62.34,2.79,2.79,0,0,1-.93.16H4.06a2.39,2.39,0,0,1-1.75-.56,2.4,2.4,0,0,1-.55-1.75V10.75a3,3,0,0,1,.18-1.1,1.81,1.81,0,0,1,.52-.75L8.91,3.46a1.8,1.8,0,0,1,.68-.33A3.35,3.35,0,0,1,10.51,3H27.16q6,0,8.15,2.48a9.21,9.21,0,0,1,2.2,6.37v2.3a10.41,10.41,0,0,1-.45,3.23,4.72,4.72,0,0,1-1.45,2.22h0a6.78,6.78,0,0,1,3.78,2.61,8,8,0,0,1,1.42,4.89V37.71a3.16,3.16,0,0,1-.17,1.09,1.83,1.83,0,0,1-.53.75L33.56,45a1.55,1.55,0,0,1-.62.34,2.79,2.79,0,0,1-.93.16H24.26a2.39,2.39,0,0,1-1.75-.56A2.4,2.4,0,0,1,22,43.15V35.5a2.09,2.09,0,0,0-.3-1.22,1.26,1.26,0,0,0-1.1-.43h0v3.86a3.16,3.16,0,0,1-.17,1.09A1.83,1.83,0,0,1,19.81,39.55Zm-1.6,0a1.91,1.91,0,0,0,1.38-.42A1.89,1.89,0,0,0,20,37.71V27.9h7a1.82,1.82,0,0,1,1.48.53,2.57,2.57,0,0,1,.42,1.62v7.66a1.85,1.85,0,0,0,.43,1.37,1.89,1.89,0,0,0,1.37.42h7.75a1.91,1.91,0,0,0,1.38-.42,1.89,1.89,0,0,0,.42-1.37V27.1a7.4,7.4,0,0,0-1.67-5.05,6.63,6.63,0,0,0-4.38-2.2,3.88,3.88,0,0,0,2.18-2.12A9.29,9.29,0,0,0,37,14.15v-2.3a8.61,8.61,0,0,0-2.12-6c-1.42-1.55-4-2.33-7.73-2.33H10.51a1.89,1.89,0,0,0-1.37.43A1.89,1.89,0,0,0,8.71,5.3V37.71a1.89,1.89,0,0,0,.43,1.37,1.89,1.89,0,0,0,1.37.42ZM14.61,35h-.5V8h11.4a5.37,5.37,0,0,1,4.3,1.63,6,6,0,0,1,1.4,4.08v3.44a10.11,10.11,0,0,1-.6,3.78,3.53,3.53,0,0,1-2.4,2h.55a6.52,6.52,0,0,1,4.55,1.37,5.12,5.12,0,0,1,1.5,4V35h-.5V28.3A4.71,4.71,0,0,0,33,24.63a6.09,6.09,0,0,0-4.2-1.23H14.61ZM25.51,8.5H14.61V23h10.9c2.07,0,3.45-.5,4.15-1.5a7.35,7.35,0,0,0,1.05-4.25v-3.5A5.44,5.44,0,0,0,29.44,10,5,5,0,0,0,25.51,8.5Zm-5.5,4h3.75a2,2,0,0,1,1.75.68A3,3,0,0,1,26,14.85v1.7a3,3,0,0,1-.45,1.68,2,2,0,0,1-1.75.67H20Z" fill="#3f3f3f"/><path d="M63.21,45.46H40a2,2,0,0,1-2.3-2.31V10.75a3,3,0,0,1,.18-1.1,1.81,1.81,0,0,1,.52-.75l6.45-5.44a1.8,1.8,0,0,1,.68-.33A3.35,3.35,0,0,1,46.46,3h23.2a2.41,2.41,0,0,1,1.75.55A2.39,2.39,0,0,1,72,5.3v5.85a3.14,3.14,0,0,1-.17,1.1,1.83,1.83,0,0,1-.53.75L67,16.55a1.52,1.52,0,0,1,.73.75,3.23,3.23,0,0,1,.22,1.3V24a3.16,3.16,0,0,1-.17,1.09,1.83,1.83,0,0,1-.53.75l-4.45,3.75h6.9a2.41,2.41,0,0,1,1.75.55A2.39,2.39,0,0,1,72,31.85v5.86a3.16,3.16,0,0,1-.17,1.09,1.83,1.83,0,0,1-.53.75L64.76,45a1.55,1.55,0,0,1-.62.34A2.79,2.79,0,0,1,63.21,45.46Zm6.45-6A1.91,1.91,0,0,0,71,39.08a1.89,1.89,0,0,0,.42-1.37V31.85A1.89,1.89,0,0,0,71,30.48a1.92,1.92,0,0,0-1.38-.43H55.86v-4.3h9.75A1.91,1.91,0,0,0,67,25.33,1.89,1.89,0,0,0,67.41,24V18.6A1.89,1.89,0,0,0,67,17.23a1.92,1.92,0,0,0-1.38-.43H55.86V13h13.8A1.92,1.92,0,0,0,71,12.53a1.9,1.9,0,0,0,.42-1.38V5.3A1.89,1.89,0,0,0,71,3.93a1.92,1.92,0,0,0-1.38-.43H46.46a1.89,1.89,0,0,0-1.37.43,1.85,1.85,0,0,0-.43,1.37V37.71a1.85,1.85,0,0,0,.43,1.37,1.89,1.89,0,0,0,1.37.42Zm-2.7-5V35H50.11V8H67v.5H50.61V21.05h12.3v.5H50.61v13Z" fill="#3f3f3f"/><path d="M93.66,45.46H81.46q-6.54,0-9.67-3.41a12.46,12.46,0,0,1-3.13-8.8v-14a13,13,0,0,1,.8-4.78,8.76,8.76,0,0,1,2.35-3.38l6.5-5.45a10.45,10.45,0,0,1,4-1.95A22,22,0,0,1,87.91,3h12.2a2.41,2.41,0,0,1,1.75.55,2.39,2.39,0,0,1,.55,1.75v6.05a3.28,3.28,0,0,1-.17,1.11,2,2,0,0,1-.53.75l-6.5,5.39a1.69,1.69,0,0,1-.62.36,3.07,3.07,0,0,1-.93.14H87.51v8.45A1.64,1.64,0,0,0,88.16,29a3.54,3.54,0,0,0,1.9.43h10a2.41,2.41,0,0,1,1.75.54,2.4,2.4,0,0,1,.55,1.75v6a3.16,3.16,0,0,1-.17,1.09,1.83,1.83,0,0,1-.53.75L95.21,45a1.55,1.55,0,0,1-.62.34A2.79,2.79,0,0,1,93.66,45.46Zm6.45-6a1.91,1.91,0,0,0,1.38-.42,1.89,1.89,0,0,0,.42-1.37v-6a1.89,1.89,0,0,0-.42-1.37,1.91,1.91,0,0,0-1.38-.42h-10a3.8,3.8,0,0,1-2.3-.58A2.15,2.15,0,0,1,87,27.55V15.65a2.3,2.3,0,0,1,.75-1.87,3.53,3.53,0,0,1,2.3-.63h10a1.91,1.91,0,0,0,1.38-.42,1.9,1.9,0,0,0,.42-1.38v-6a1.89,1.89,0,0,0-.42-1.37,1.92,1.92,0,0,0-1.38-.43H87.91c-4.16,0-7.26.85-9.27,2.53s-3,4.26-3,7.72V29.3q0,5.21,3,7.7c2,1.67,5.11,2.5,9.27,2.5Zm-2.75-5V35H89q-4.85,0-6.42-1.5T81,28.55v-14c0-2.36.54-4.05,1.6-5.05S85.81,8,89,8h8.35v.5H89q-4.4,0-6,1.38c-1,.92-1.55,2.47-1.55,4.67v14q0,3.25,1.5,4.6t6,1.35Z" fill="#3f3f3f"/><path d="M124.91,45.46h-23.2a2,2,0,0,1-2.3-2.31V10.75a3,3,0,0,1,.18-1.1,1.81,1.81,0,0,1,.52-.75l6.45-5.44a1.8,1.8,0,0,1,.68-.33,3.35,3.35,0,0,1,.92-.13h23.2a2.41,2.41,0,0,1,1.75.55,2.39,2.39,0,0,1,.55,1.75v5.85a3.14,3.14,0,0,1-.17,1.1A1.83,1.83,0,0,1,133,13l-4.3,3.55a1.52,1.52,0,0,1,.73.75,3.23,3.23,0,0,1,.22,1.3V24a3.16,3.16,0,0,1-.17,1.09,1.83,1.83,0,0,1-.53.75l-4.45,3.75h6.9a2.41,2.41,0,0,1,1.75.55,2.39,2.39,0,0,1,.55,1.75v5.86a3.16,3.16,0,0,1-.17,1.09,1.83,1.83,0,0,1-.53.75L126.46,45a1.55,1.55,0,0,1-.62.34A2.79,2.79,0,0,1,124.91,45.46Zm6.45-6a1.91,1.91,0,0,0,1.38-.42,1.89,1.89,0,0,0,.42-1.37V31.85a1.89,1.89,0,0,0-.42-1.37,1.92,1.92,0,0,0-1.38-.43h-13.8v-4.3h9.75a1.91,1.91,0,0,0,1.38-.42,1.89,1.89,0,0,0,.42-1.37V18.6a1.89,1.89,0,0,0-.42-1.37,1.92,1.92,0,0,0-1.38-.43h-9.75V13h13.8a1.92,1.92,0,0,0,1.38-.43,1.9,1.9,0,0,0,.42-1.38V5.3a1.89,1.89,0,0,0-.42-1.37,1.92,1.92,0,0,0-1.38-.43h-23.2a1.89,1.89,0,0,0-1.37.43,1.85,1.85,0,0,0-.43,1.37V37.71a1.85,1.85,0,0,0,.43,1.37,1.89,1.89,0,0,0,1.37.42Zm-2.7-5V35H111.81V8h16.85v.5H112.31V21.05h12.3v.5h-12.3v13Z" fill="#3f3f3f"/><path d="M148.76,39.55,142.26,45a1.55,1.55,0,0,1-.62.34,2.79,2.79,0,0,1-.93.16h-7.5a2,2,0,0,1-2.3-2.31V10.75a3,3,0,0,1,.18-1.1,1.81,1.81,0,0,1,.52-.75l6.45-5.44a1.8,1.8,0,0,1,.68-.33,3.35,3.35,0,0,1,.92-.13h5.2a4.39,4.39,0,0,1,1.85.35,5.19,5.19,0,0,1,1.5,1.15l3.45,4,6.05-5a1.8,1.8,0,0,1,.68-.33,3.35,3.35,0,0,1,.92-.13h7.5a2.41,2.41,0,0,1,1.75.55,2.39,2.39,0,0,1,.55,1.75V37.71a3.16,3.16,0,0,1-.17,1.09,1.83,1.83,0,0,1-.53.75L161.91,45a1.55,1.55,0,0,1-.62.34,2.79,2.79,0,0,1-.93.16h-7.5a2,2,0,0,1-2.3-2.31V37.21l-1.1-1.36v1.86a3.16,3.16,0,0,1-.17,1.09A1.83,1.83,0,0,1,148.76,39.55Zm-1.6,0a1.91,1.91,0,0,0,1.38-.42,1.89,1.89,0,0,0,.42-1.37V21.21l8.55,10.34v6.16a1.85,1.85,0,0,0,.43,1.37,1.89,1.89,0,0,0,1.37.42h7.5a1.91,1.91,0,0,0,1.38-.42,1.89,1.89,0,0,0,.42-1.37V5.3a1.89,1.89,0,0,0-.42-1.37,1.92,1.92,0,0,0-1.38-.43h-7.5a1.89,1.89,0,0,0-1.37.43,1.85,1.85,0,0,0-.43,1.37V16l-9.7-11.11a3.86,3.86,0,0,0-1.32-1,4,4,0,0,0-1.63-.3h-5.2a1.89,1.89,0,0,0-1.37.43,1.85,1.85,0,0,0-.43,1.37V37.71a1.85,1.85,0,0,0,.43,1.37,1.89,1.89,0,0,0,1.37.42Zm-2.7-31.1,18.4,20.7V8h.5V35h-.5V29.85L144,8.65l-.12-.1a.27.27,0,0,0-.13-.05.08.08,0,0,0-.07.05.22.22,0,0,0,0,.1V35h-.5V8.55a.55.55,0,0,1,.2-.45.67.67,0,0,1,.4-.14.65.65,0,0,1,.35.09A3.27,3.27,0,0,1,144.46,8.4Z" fill="#3f3f3f"/><path d="M184.86,45.46h-8.1a2,2,0,0,1-2.3-2.31v-24h-6.85a2.39,2.39,0,0,1-1.75-.55,2.37,2.37,0,0,1-.55-1.75V10.75a3,3,0,0,1,.18-1.1A1.81,1.81,0,0,1,166,8.9l6.45-5.44a1.8,1.8,0,0,1,.68-.33,3.35,3.35,0,0,1,.92-.13h26.4a2.43,2.43,0,0,1,1.75.55,2.39,2.39,0,0,1,.55,1.75v6.05a3.28,3.28,0,0,1-.17,1.11,2.09,2.09,0,0,1-.53.75l-6.5,5.39a1.69,1.69,0,0,1-.62.36,3.12,3.12,0,0,1-.93.14h-.4V37.71a3.16,3.16,0,0,1-.17,1.09,1.83,1.83,0,0,1-.53.75L186.41,45a1.55,1.55,0,0,1-.62.34A2.79,2.79,0,0,1,184.86,45.46Zm6.45-6a1.91,1.91,0,0,0,1.38-.42,1.89,1.89,0,0,0,.42-1.37V13.15h7.35a1.93,1.93,0,0,0,1.38-.42,1.9,1.9,0,0,0,.42-1.38v-6a1.89,1.89,0,0,0-.42-1.37,1.93,1.93,0,0,0-1.38-.43h-26.4a1.89,1.89,0,0,0-1.37.43,1.85,1.85,0,0,0-.43,1.37v6.05a1.86,1.86,0,0,0,.43,1.38,1.89,1.89,0,0,0,1.37.42h7.35V37.71a1.85,1.85,0,0,0,.43,1.37,1.89,1.89,0,0,0,1.37.42ZM187,35V8.5H176.76V8h21v.5H187.51V35Z" fill="#3f3f3f"/><path d="M18.46,39.5h-7.7a1.89,1.89,0,0,1-1.37-.42A1.89,1.89,0,0,1,9,37.71V5.3a1.89,1.89,0,0,1,.43-1.37,1.89,1.89,0,0,1,1.37-.43H27.41c3.74,0,6.31.78,7.73,2.33a8.61,8.61,0,0,1,2.12,6v2.3a9.29,9.29,0,0,1-.62,3.58,3.88,3.88,0,0,1-2.18,2.12,6.63,6.63,0,0,1,4.38,2.2,7.4,7.4,0,0,1,1.67,5.05V37.71a1.89,1.89,0,0,1-.42,1.37,1.91,1.91,0,0,1-1.38.42H31a1.89,1.89,0,0,1-1.37-.42,1.85,1.85,0,0,1-.43-1.37V30.05a2.57,2.57,0,0,0-.42-1.62,1.82,1.82,0,0,0-1.48-.53h-7v9.81a1.89,1.89,0,0,1-.42,1.37A1.91,1.91,0,0,1,18.46,39.5ZM14.86,35V23.4H29a6.09,6.09,0,0,1,4.2,1.23,4.71,4.71,0,0,1,1.35,3.67V35h.5V28.3a5.12,5.12,0,0,0-1.5-4A6.52,6.52,0,0,0,29,23h-.55a3.53,3.53,0,0,0,2.4-2,10.11,10.11,0,0,0,.6-3.78V13.71a6,6,0,0,0-1.4-4.08A5.37,5.37,0,0,0,25.76,8H14.36V35ZM25.76,8.5A5,5,0,0,1,29.69,10,5.44,5.44,0,0,1,31,13.71v3.5a7.35,7.35,0,0,1-1.05,4.25c-.7,1-2.08,1.5-4.15,1.5H14.86V8.5Zm-5.5,4v6.4H24a2,2,0,0,0,1.75-.67,3,3,0,0,0,.45-1.68v-1.7a3,3,0,0,0-.45-1.67A2,2,0,0,0,24,12.5Z" fill="#fff"/><path d="M69.61,39.5H46.41A1.89,1.89,0,0,1,45,39.08a1.85,1.85,0,0,1-.43-1.37V5.3A1.85,1.85,0,0,1,45,3.93a1.89,1.89,0,0,1,1.37-.43h23.2A1.92,1.92,0,0,1,71,3.93a1.89,1.89,0,0,1,.42,1.37v5.85A1.9,1.9,0,0,1,71,12.53a1.92,1.92,0,0,1-1.38.43H55.81V16.8h9.75a1.92,1.92,0,0,1,1.38.43,1.89,1.89,0,0,1,.42,1.37V24a1.89,1.89,0,0,1-.42,1.37,1.91,1.91,0,0,1-1.38.42H55.81v4.3h13.8a1.92,1.92,0,0,1,1.38.43,1.89,1.89,0,0,1,.42,1.37v5.86A1.89,1.89,0,0,1,71,39.08,1.91,1.91,0,0,1,69.61,39.5Zm-2.7-5H50.56V21.55h12.3v-.5H50.56V8.5H66.91V8H50.06V35H66.91Z" fill="#fff"/><path d="M100,39.5H87.81c-4.16,0-7.26-.83-9.27-2.5s-3-4.23-3-7.7V13.75c0-3.46,1-6,3-7.72S83.65,3.5,87.81,3.5H100a1.92,1.92,0,0,1,1.38.43,1.89,1.89,0,0,1,.42,1.37v6.05a1.9,1.9,0,0,1-.42,1.38,1.91,1.91,0,0,1-1.38.42H90a3.53,3.53,0,0,0-2.3.63,2.3,2.3,0,0,0-.75,1.87v11.9a2.15,2.15,0,0,0,.75,1.83A3.8,3.8,0,0,0,90,30H100a1.91,1.91,0,0,1,1.38.42,1.89,1.89,0,0,1,.42,1.37v6a1.89,1.89,0,0,1-.42,1.37A1.91,1.91,0,0,1,100,39.5Zm-2.75-5H88.91q-4.5,0-6-1.35t-1.5-4.6v-14c0-2.2.52-3.75,1.55-4.67s3-1.38,6-1.38h8.35V8H88.91q-4.8,0-6.4,1.5c-1.06,1-1.6,2.69-1.6,5.05v14q0,3.45,1.58,4.95T88.91,35h8.35Z" fill="#fff"/><path d="M131.46,39.5h-23.2a1.89,1.89,0,0,1-1.37-.42,1.85,1.85,0,0,1-.43-1.37V5.3a1.85,1.85,0,0,1,.43-1.37,1.89,1.89,0,0,1,1.37-.43h23.2a1.92,1.92,0,0,1,1.38.43,1.89,1.89,0,0,1,.42,1.37v5.85a1.9,1.9,0,0,1-.42,1.38,1.92,1.92,0,0,1-1.38.43h-13.8V16.8h9.75a1.92,1.92,0,0,1,1.38.43,1.89,1.89,0,0,1,.42,1.37V24a1.89,1.89,0,0,1-.42,1.37,1.91,1.91,0,0,1-1.38.42h-9.75v4.3h13.8a1.92,1.92,0,0,1,1.38.43,1.89,1.89,0,0,1,.42,1.37v5.86a1.89,1.89,0,0,1-.42,1.37A1.91,1.91,0,0,1,131.46,39.5Zm-2.7-5H112.41V21.55h12.3v-.5h-12.3V8.5h16.35V8H111.91V35h16.85Z" fill="#fff"/><path d="M147,39.5h-7.5a1.89,1.89,0,0,1-1.37-.42,1.85,1.85,0,0,1-.43-1.37V5.3a1.85,1.85,0,0,1,.43-1.37,1.89,1.89,0,0,1,1.37-.43h5.2a4,4,0,0,1,1.63.3,3.86,3.86,0,0,1,1.32,1L157.31,16V5.3a1.85,1.85,0,0,1,.43-1.37,1.89,1.89,0,0,1,1.37-.43h7.5a1.92,1.92,0,0,1,1.38.43,1.89,1.89,0,0,1,.42,1.37V37.71a1.89,1.89,0,0,1-.42,1.37,1.91,1.91,0,0,1-1.38.42h-7.5a1.89,1.89,0,0,1-1.37-.42,1.85,1.85,0,0,1-.43-1.37V31.55l-8.55-10.34v16.5a1.89,1.89,0,0,1-.42,1.37A1.91,1.91,0,0,1,147,39.5Zm-2.7-31.1a3.27,3.27,0,0,0-.4-.35.65.65,0,0,0-.35-.09.67.67,0,0,0-.4.14.55.55,0,0,0-.2.45V35h.5V8.65a.22.22,0,0,1,0-.1.08.08,0,0,1,.07-.05.27.27,0,0,1,.13.05l.12.1,18.9,21.2V35h.5V8h-.5V29.1Z" fill="#fff"/><path d="M191.31,39.5h-8.1a1.89,1.89,0,0,1-1.37-.42,1.85,1.85,0,0,1-.43-1.37V13.15h-7.35a1.89,1.89,0,0,1-1.37-.42,1.86,1.86,0,0,1-.43-1.38v-6a1.85,1.85,0,0,1,.43-1.37,1.89,1.89,0,0,1,1.37-.43h26.4a1.93,1.93,0,0,1,1.38.43,1.89,1.89,0,0,1,.42,1.37v6.05a1.9,1.9,0,0,1-.42,1.38,1.93,1.93,0,0,1-1.38.42h-7.35V37.71a1.89,1.89,0,0,1-.42,1.37A1.91,1.91,0,0,1,191.31,39.5ZM187,35h.5V8.5h10.25V8h-21v.5H187Z" fill="#fff"/><path d="M236.16,44.85a3.57,3.57,0,0,1-.8.43,2.55,2.55,0,0,1-1,.18h-6.6a2.48,2.48,0,0,1-1.65-.61,3.2,3.2,0,0,1-1-1.55l-2.5-6.9a12.19,12.19,0,0,1-.82-3.27c-.09-1-.13-2-.13-3.08V10.75a3,3,0,0,1,.18-1.1,1.81,1.81,0,0,1,.52-.75l6.45-5.44a1.8,1.8,0,0,1,.68-.33,3.35,3.35,0,0,1,.92-.13h7.7a2.43,2.43,0,0,1,1.75.55,2.39,2.39,0,0,1,.55,1.75V18.35l2.8-2.35a2.4,2.4,0,0,1,1-.5,5,5,0,0,1,1.27-.15h.7v-4.6a3.57,3.57,0,0,1,.15-1.1,1.44,1.44,0,0,1,.45-.69l.05-.06,6.5-5.44a1.8,1.8,0,0,1,.65-.33A3.3,3.3,0,0,1,255,3h7.45a2.43,2.43,0,0,1,1.75.55,2.39,2.39,0,0,1,.55,1.75V24.71c0,1.09,0,2.12-.12,3.07a12.64,12.64,0,0,1-.83,3.27l-2.5,6.8a3.37,3.37,0,0,1-.4.9,4.29,4.29,0,0,1-.6.75l-6.45,5.35a2,2,0,0,1-.65.45,2,2,0,0,1-.8.16h-6.65A3.33,3.33,0,0,1,244,45a2.35,2.35,0,0,1-1.05-1.4l-1-3.55ZM255,3.5a1.89,1.89,0,0,0-1.37.43,1.85,1.85,0,0,0-.43,1.37V23.71l-2.9-6.31a2.53,2.53,0,0,0-1-1.19,3.26,3.26,0,0,0-1.6-.36h-2.1a3.26,3.26,0,0,0-1.6.36,2.53,2.53,0,0,0-1,1.19L240,23.71V5.3a1.89,1.89,0,0,0-.42-1.37,1.93,1.93,0,0,0-1.38-.43h-7.7a1.89,1.89,0,0,0-1.37.43,1.85,1.85,0,0,0-.43,1.37V24.6c0,1.07,0,2.06.13,3a13.57,13.57,0,0,0,.77,3.22l2.5,6.91a2.73,2.73,0,0,0,.83,1.29,2,2,0,0,0,1.37.5h6.6a2.35,2.35,0,0,0,1.35-.37A1.87,1.87,0,0,0,243,38l2.35-8.15a1.34,1.34,0,0,1,.38-.67.8.8,0,0,1,.52-.18h.45a.83.83,0,0,1,.53.18,1.34,1.34,0,0,1,.37.67l2.3,8.15a1.68,1.68,0,0,0,.85,1.15,2.94,2.94,0,0,0,1.45.35h6.65a1.65,1.65,0,0,0,1.28-.52,3.66,3.66,0,0,0,.72-1.27l2.5-6.81a14.15,14.15,0,0,0,.78-3.22q.12-1.38.12-3V5.3a1.89,1.89,0,0,0-.42-1.37,1.93,1.93,0,0,0-1.38-.43Zm-7.85,18.75a1.74,1.74,0,0,1,1.28.48,8.31,8.31,0,0,1,1.17,1.87l4.6,9.2a1,1,0,0,0,.63.6,2.66,2.66,0,0,0,.72.1h.25a1.06,1.06,0,0,0,.75-.32,1.2,1.2,0,0,0,.4-.72l1.25-5.71a13.87,13.87,0,0,0,.23-2.45c0-1,0-1.86,0-2.59V8h.5V22.75c0,.74,0,1.6,0,2.6a13.87,13.87,0,0,1-.23,2.45l-1.25,5.66a2.24,2.24,0,0,1-.62,1.17,1.52,1.52,0,0,1-1,.37h-.35a2.53,2.53,0,0,1-.92-.17,1.31,1.31,0,0,1-.73-.68l-4.6-9.3a7.32,7.32,0,0,0-1-1.7,1.39,1.39,0,0,0-1-.4h-1.25a1.39,1.39,0,0,0-1,.4,7.32,7.32,0,0,0-1.05,1.7l-4.6,9.3a1.32,1.32,0,0,1-.72.68,2.62,2.62,0,0,1-.93.17h-.35a1.47,1.47,0,0,1-1-.37,2.18,2.18,0,0,1-.63-1.17l-1.25-5.66a13.09,13.09,0,0,1-.22-2.45c0-1,0-1.86,0-2.6V8h.5V22.71c0,.73,0,1.59,0,2.59a13.09,13.09,0,0,0,.22,2.45l1.25,5.71a1.2,1.2,0,0,0,.4.72,1.06,1.06,0,0,0,.75.32h.25a2.73,2.73,0,0,0,.73-.1,1,1,0,0,0,.62-.6l4.6-9.2a7.91,7.91,0,0,1,1.18-1.87,1.7,1.7,0,0,1,1.27-.48Z" fill="#3f3f3f"/><path d="M291,43.05a12.23,12.23,0,0,1-4.9,2.33,32.78,32.78,0,0,1-8.1.83,26.27,26.27,0,0,1-8-1,12.62,12.62,0,0,1-4.9-2.72,9,9,0,0,1-2.45-3.91A15.38,15.38,0,0,1,262,34V18.46a13.71,13.71,0,0,1,.65-4.28A7.28,7.28,0,0,1,265,10.8l6.5-5.4a12.2,12.2,0,0,1,4.88-2.32,32.67,32.67,0,0,1,8.12-.83,33.44,33.44,0,0,1,8,.8,13.06,13.06,0,0,1,4.9,2.23,7.18,7.18,0,0,1,2.42,3.4,13.88,13.88,0,0,1,.65,4.32V30.05a13.43,13.43,0,0,1-.65,4.25,7.25,7.25,0,0,1-2.35,3.35Zm8.95-13V13a12.24,12.24,0,0,0-.67-4.17,7.14,7.14,0,0,0-2.4-3.23,12.79,12.79,0,0,0-4.75-2.1,39.8,39.8,0,0,0-15.38,0A12.75,12.75,0,0,0,272,5.6a7.14,7.14,0,0,0-2.4,3.23,12.24,12.24,0,0,0-.68,4.17V30.05a12.26,12.26,0,0,0,.68,4.18,7,7,0,0,0,2.4,3.2,12.91,12.91,0,0,0,4.77,2.07,33,33,0,0,0,7.7.75,32.73,32.73,0,0,0,7.68-.75,13,13,0,0,0,4.75-2.07,7,7,0,0,0,2.4-3.2A12.26,12.26,0,0,0,300,30.05Zm-5.45-1.15a6.18,6.18,0,0,1-2.15,4.88q-2.14,1.88-8,1.87t-7.95-1.87a6.24,6.24,0,0,1-2.1-4.88V14.15a6.22,6.22,0,0,1,2.1-4.87q2.1-1.87,7.95-1.88t8,1.88a6.16,6.16,0,0,1,2.15,4.87Zm-19.7,0a5.7,5.7,0,0,0,2,4.53q2,1.73,7.55,1.72t7.6-1.72A5.62,5.62,0,0,0,294,28.9V14.15A5.62,5.62,0,0,0,292,9.63q-2.06-1.73-7.6-1.73t-7.55,1.73a5.7,5.7,0,0,0-2,4.52Zm5.45-.65V14.8a2.11,2.11,0,0,1,.75-1.62c.5-.45,1.65-.68,3.45-.68s3,.23,3.45.68a2.11,2.11,0,0,1,.75,1.62V28.25a2.17,2.17,0,0,1-.75,1.68c-.5.45-1.65.67-3.45.67s-2.95-.22-3.45-.67A2.17,2.17,0,0,1,280.26,28.25Zm.5,0a1.87,1.87,0,0,0,.2.88,1.45,1.45,0,0,0,.75.62v-9.5a1.86,1.86,0,0,0-.2-.87,1.31,1.31,0,0,0-.75-.58Z" fill="#3f3f3f"/><path d="M316.21,39.55,309.71,45a1.53,1.53,0,0,1-.63.34,2.73,2.73,0,0,1-.92.16h-7.7a2.39,2.39,0,0,1-1.75-.56,2.35,2.35,0,0,1-.55-1.75V10.75a3.26,3.26,0,0,1,.17-1.1,1.93,1.93,0,0,1,.53-.75l6.45-5.44a1.8,1.8,0,0,1,.68-.33,3.35,3.35,0,0,1,.92-.13h16.65c4,0,6.68.83,8.15,2.48a9.21,9.21,0,0,1,2.2,6.37v2.3a10.41,10.41,0,0,1-.45,3.23A4.72,4.72,0,0,1,332,19.6H332a6.82,6.82,0,0,1,3.78,2.61,8,8,0,0,1,1.42,4.89V37.71A3.16,3.16,0,0,1,337,38.8a1.93,1.93,0,0,1-.53.75L330,45a1.53,1.53,0,0,1-.63.34,2.73,2.73,0,0,1-.92.16h-7.75a2.39,2.39,0,0,1-1.75-.56,2.35,2.35,0,0,1-.55-1.75V35.5a2.09,2.09,0,0,0-.3-1.22,1.27,1.27,0,0,0-1.1-.43h0v3.86a3.16,3.16,0,0,1-.17,1.09A1.93,1.93,0,0,1,316.21,39.55Zm-1.6,0a1.93,1.93,0,0,0,1.38-.42,1.89,1.89,0,0,0,.42-1.37V27.9h7a1.79,1.79,0,0,1,1.47.53,2.51,2.51,0,0,1,.43,1.62v7.66a1.85,1.85,0,0,0,.43,1.37,1.89,1.89,0,0,0,1.37.42h7.75a1.93,1.93,0,0,0,1.38-.42,1.89,1.89,0,0,0,.42-1.37V27.1A7.4,7.4,0,0,0,335,22.05a6.63,6.63,0,0,0-4.38-2.2,3.87,3.87,0,0,0,2.17-2.12,9.1,9.1,0,0,0,.63-3.58v-2.3a8.57,8.57,0,0,0-2.13-6c-1.41-1.55-4-2.33-7.72-2.33H306.91a1.93,1.93,0,0,0-1.38.43,1.89,1.89,0,0,0-.42,1.37V37.71a1.89,1.89,0,0,0,.42,1.37,1.93,1.93,0,0,0,1.38.42ZM311,35h-.5V8h11.4a5.38,5.38,0,0,1,4.3,1.63,6,6,0,0,1,1.4,4.08v3.44a10.11,10.11,0,0,1-.6,3.78,3.53,3.53,0,0,1-2.4,2h.55a6.53,6.53,0,0,1,4.55,1.37,5.12,5.12,0,0,1,1.5,4V35h-.5V28.3a4.71,4.71,0,0,0-1.35-3.67,6.09,6.09,0,0,0-4.2-1.23H311Zm10.9-26.5H311V23h10.9c2.07,0,3.45-.5,4.15-1.5a7.35,7.35,0,0,0,1.05-4.25v-3.5A5.4,5.4,0,0,0,325.83,10,4.92,4.92,0,0,0,321.91,8.5Zm-5.5,4h3.75a2,2,0,0,1,1.75.68,3,3,0,0,1,.45,1.67v1.7a3,3,0,0,1-.45,1.68,2,2,0,0,1-1.75.67h-3.75Z" fill="#3f3f3f"/><path d="M352.21,39.55,345.71,45a1.53,1.53,0,0,1-.63.34,2.73,2.73,0,0,1-.92.16h-7.75a2.39,2.39,0,0,1-1.75-.56,2.35,2.35,0,0,1-.55-1.75V10.75a3.26,3.26,0,0,1,.17-1.1,1.93,1.93,0,0,1,.53-.75l6.45-5.44a1.8,1.8,0,0,1,.68-.33,3.35,3.35,0,0,1,.92-.13h7.75a2.43,2.43,0,0,1,1.75.55,2.39,2.39,0,0,1,.55,1.75V9.85q.15-.19.3-.42a1.6,1.6,0,0,1,.35-.38L360,3.6a2.22,2.22,0,0,1,.88-.45A4.25,4.25,0,0,1,362.06,3h7.7a1.83,1.83,0,0,1,1.65.63,1.78,1.78,0,0,1-.1,1.72l-4.8,11a6.43,6.43,0,0,1,4.3,2.3,7.55,7.55,0,0,1,1.6,5V37.71a3.16,3.16,0,0,1-.17,1.09,1.93,1.93,0,0,1-.53.75L365.21,45a1.53,1.53,0,0,1-.63.34,2.73,2.73,0,0,1-.92.16H356a2.39,2.39,0,0,1-1.75-.56,2.35,2.35,0,0,1-.55-1.75V33.4a1.46,1.46,0,0,0-.2-.8.79.79,0,0,0-.55-.35v5.46a3.16,3.16,0,0,1-.17,1.09A1.93,1.93,0,0,1,352.21,39.55Zm-1.6,0a1.93,1.93,0,0,0,1.38-.42,1.89,1.89,0,0,0,.42-1.37V26.25H359a1.5,1.5,0,0,1,1.2.46,1.77,1.77,0,0,1,.4,1.25v9.75a1.89,1.89,0,0,0,.42,1.37,1.93,1.93,0,0,0,1.38.42h7.7a1.93,1.93,0,0,0,1.38-.42,1.89,1.89,0,0,0,.42-1.37V23.6a6.88,6.88,0,0,0-1.67-4.82,6.27,6.27,0,0,0-4.48-2l5.1-11.65a1.24,1.24,0,0,0,.05-1.22,1.33,1.33,0,0,0-1.15-.43h-7.7a2.89,2.89,0,0,0-1.55.38,2.47,2.47,0,0,0-.95,1.27L354.41,16.8h-2V5.3A1.89,1.89,0,0,0,352,3.93a1.93,1.93,0,0,0-1.38-.43h-7.75a1.89,1.89,0,0,0-1.37.43,1.85,1.85,0,0,0-.43,1.37V37.71a1.85,1.85,0,0,0,.43,1.37,1.89,1.89,0,0,0,1.37.42ZM347,35h-.5V8h.5V21.3h10.85L363.61,8h.55l-5.75,13.3h2A7.42,7.42,0,0,1,365,22.46a4.41,4.41,0,0,1,1.5,3.75V35H366V26.21a3.91,3.91,0,0,0-1.4-3.41,7.18,7.18,0,0,0-4.15-1H347Z" fill="#3f3f3f"/><path d="M255,3.5h7.45a1.93,1.93,0,0,1,1.38.43,1.89,1.89,0,0,1,.42,1.37V24.71q0,1.59-.12,3a14.15,14.15,0,0,1-.78,3.22l-2.5,6.81a3.66,3.66,0,0,1-.72,1.27,1.65,1.65,0,0,1-1.28.52h-6.65a2.94,2.94,0,0,1-1.45-.35,1.68,1.68,0,0,1-.85-1.15l-2.3-8.15a1.34,1.34,0,0,0-.37-.67.83.83,0,0,0-.53-.18h-.45a.8.8,0,0,0-.52.18,1.34,1.34,0,0,0-.38.67L243,38a1.87,1.87,0,0,1-.75,1.13,2.35,2.35,0,0,1-1.35.37h-6.6a2,2,0,0,1-1.37-.5,2.73,2.73,0,0,1-.83-1.29l-2.5-6.91a13.57,13.57,0,0,1-.77-3.22c-.09-.92-.13-1.91-.13-3V5.3a1.85,1.85,0,0,1,.43-1.37,1.89,1.89,0,0,1,1.37-.43h7.7a1.93,1.93,0,0,1,1.38.43A1.89,1.89,0,0,1,240,5.3V23.71l2.9-6.31a2.53,2.53,0,0,1,1-1.19,3.26,3.26,0,0,1,1.6-.36h2.1a3.26,3.26,0,0,1,1.6.36,2.53,2.53,0,0,1,1,1.19l2.9,6.31V5.3a1.85,1.85,0,0,1,.43-1.37A1.89,1.89,0,0,1,255,3.5Zm-7.35,18.75h-2.25a1.8,1.8,0,0,0-1.3.48,6.64,6.64,0,0,0-1.15,1.87l-4.1,9.2a.86.86,0,0,1-.6.6,3,3,0,0,1-.75.1h-.25a1.06,1.06,0,0,1-.75-.32,1.2,1.2,0,0,1-.4-.72l-1.25-5.71a13.09,13.09,0,0,1-.22-2.45c0-1,0-1.86,0-2.59V8h-.5V22.75c0,.74,0,1.6,0,2.6a13.09,13.09,0,0,0,.22,2.45l1.25,5.66a2.18,2.18,0,0,0,.63,1.17,1.47,1.47,0,0,0,1,.37h.35a2.77,2.77,0,0,0,.95-.17,1.12,1.12,0,0,0,.7-.68l4.1-9.3a5.47,5.47,0,0,1,1-1.72,1.48,1.48,0,0,1,1-.38h2.25a1.52,1.52,0,0,1,1,.38,5.7,5.7,0,0,1,1,1.72l4.1,9.3a1.12,1.12,0,0,0,.7.68,2.77,2.77,0,0,0,.95.17h.35a1.52,1.52,0,0,0,1-.37,2.24,2.24,0,0,0,.62-1.17l1.25-5.66a13.87,13.87,0,0,0,.23-2.45c0-1,0-1.86,0-2.6V8h-.5V22.71c0,.73,0,1.59,0,2.59a13.87,13.87,0,0,1-.23,2.45l-1.25,5.71a1.2,1.2,0,0,1-.4.72,1.06,1.06,0,0,1-.75.32h-.25a3,3,0,0,1-.75-.1.86.86,0,0,1-.6-.6l-4.1-9.2a6.64,6.64,0,0,0-1.15-1.87A1.8,1.8,0,0,0,247.61,22.25Z" fill="#fff"/><path d="M299.91,30.05a12.26,12.26,0,0,1-.67,4.18,7,7,0,0,1-2.4,3.2,13,13,0,0,1-4.75,2.07,32.73,32.73,0,0,1-7.68.75,33,33,0,0,1-7.7-.75,12.91,12.91,0,0,1-4.77-2.07,7,7,0,0,1-2.4-3.2,12.26,12.26,0,0,1-.68-4.18V13a12.24,12.24,0,0,1,.68-4.17,7.14,7.14,0,0,1,2.4-3.23,12.75,12.75,0,0,1,4.77-2.1,39.8,39.8,0,0,1,15.38,0,12.79,12.79,0,0,1,4.75,2.1,7.14,7.14,0,0,1,2.4,3.23,12.24,12.24,0,0,1,.67,4.17Zm-5.45-1.15V14.15a6.16,6.16,0,0,0-2.15-4.87q-2.15-1.87-8-1.88t-7.95,1.88a6.22,6.22,0,0,0-2.1,4.87V28.9a6.24,6.24,0,0,0,2.1,4.88q2.1,1.88,7.95,1.87t8-1.87A6.18,6.18,0,0,0,294.46,28.9Zm-19.7,0V14.15a5.7,5.7,0,0,1,2-4.52q2-1.73,7.55-1.73t7.6,1.73a5.62,5.62,0,0,1,2,4.52V28.9a5.62,5.62,0,0,1-2,4.53q-2.06,1.73-7.6,1.72t-7.55-1.72A5.7,5.7,0,0,1,274.76,28.9Zm5.45-.65a2.17,2.17,0,0,0,.75,1.68c.5.45,1.65.67,3.45.67s2.95-.22,3.45-.67a2.17,2.17,0,0,0,.75-1.68V14.8a2.11,2.11,0,0,0-.75-1.62c-.5-.45-1.65-.68-3.45-.68s-3,.23-3.45.68a2.11,2.11,0,0,0-.75,1.62Z" fill="#fff"/><path d="M314.61,39.5h-7.7a1.93,1.93,0,0,1-1.38-.42,1.89,1.89,0,0,1-.42-1.37V5.3a1.89,1.89,0,0,1,.42-1.37,1.93,1.93,0,0,1,1.38-.43h16.65c3.73,0,6.31.78,7.72,2.33a8.57,8.57,0,0,1,2.13,6v2.3a9.1,9.1,0,0,1-.63,3.58,3.87,3.87,0,0,1-2.17,2.12,6.63,6.63,0,0,1,4.38,2.2,7.4,7.4,0,0,1,1.67,5.05V37.71a1.89,1.89,0,0,1-.42,1.37,1.93,1.93,0,0,1-1.38.42h-7.75a1.89,1.89,0,0,1-1.37-.42,1.85,1.85,0,0,1-.43-1.37V30.05a2.51,2.51,0,0,0-.43-1.62,1.79,1.79,0,0,0-1.47-.53h-7v9.81a1.89,1.89,0,0,1-.42,1.37A1.93,1.93,0,0,1,314.61,39.5ZM311,35V23.4h14.15a6.09,6.09,0,0,1,4.2,1.23,4.71,4.71,0,0,1,1.35,3.67V35h.5V28.3a5.12,5.12,0,0,0-1.5-4A6.53,6.53,0,0,0,325.16,23h-.55a3.53,3.53,0,0,0,2.4-2,10.11,10.11,0,0,0,.6-3.78V13.71a6,6,0,0,0-1.4-4.08A5.38,5.38,0,0,0,321.91,8h-11.4V35Zm10.9-26.5A4.92,4.92,0,0,1,325.83,10a5.4,5.4,0,0,1,1.28,3.75v3.5a7.35,7.35,0,0,1-1.05,4.25c-.7,1-2.08,1.5-4.15,1.5H311V8.5Zm-5.5,4v6.4h3.75a2,2,0,0,0,1.75-.67,3,3,0,0,0,.45-1.68v-1.7a3,3,0,0,0-.45-1.67,2,2,0,0,0-1.75-.68Z" fill="#fff"/><path d="M350.64,39.5h-7.75a1.53,1.53,0,0,1-1.8-1.79V5.3a1.89,1.89,0,0,1,.42-1.37,1.9,1.9,0,0,1,1.38-.43h7.75a1.89,1.89,0,0,1,1.37.43,1.89,1.89,0,0,1,.43,1.37V16.8h2l5.15-11.65a2.47,2.47,0,0,1,1-1.27,2.87,2.87,0,0,1,1.55-.38h7.7a1.34,1.34,0,0,1,1.15.43,1.24,1.24,0,0,1-.05,1.22l-5.1,11.65a6.26,6.26,0,0,1,4.47,2,6.84,6.84,0,0,1,1.68,4.82V37.71a1.54,1.54,0,0,1-1.8,1.79h-7.7a1.53,1.53,0,0,1-1.8-1.79V28a1.82,1.82,0,0,0-.4-1.25,1.5,1.5,0,0,0-1.2-.46h-6.6V37.71a1.54,1.54,0,0,1-1.8,1.79ZM347,35V21.8h13.45a7.2,7.2,0,0,1,4.15,1,3.91,3.91,0,0,1,1.4,3.41V35h.5V26.21a4.41,4.41,0,0,0-1.5-3.75,7.42,7.42,0,0,0-4.55-1.16h-2.05L364.19,8h-.55l-5.75,13.3H347V8h-.5V35Z" fill="#fff"/></svg>