<svg xmlns="http://www.w3.org/2000/svg" width="201" height="42.45" viewBox="0 0 201 42.45"><path d="M18.05,36.55,11.55,42a1.66,1.66,0,0,1-.63.35,2.73,2.73,0,0,1-.92.15H2.3A2.39,2.39,0,0,1,.55,41.9,2.39,2.39,0,0,1,0,40.15V7.75a3.22,3.22,0,0,1,.17-1.1A1.93,1.93,0,0,1,.7,5.9L7.15.45A2.15,2.15,0,0,1,7.83.12,3.36,3.36,0,0,1,8.75,0H25.4c4,0,6.68.83,8.15,2.48a9.19,9.19,0,0,1,2.2,6.37v2.3a10.46,10.46,0,0,1-.45,3.23,4.82,4.82,0,0,1-1.45,2.22H33.8a6.8,6.8,0,0,1,3.78,2.6A8.08,8.08,0,0,1,39,24.1V34.7a3.22,3.22,0,0,1-.17,1.1,1.93,1.93,0,0,1-.53.75L31.8,42a1.66,1.66,0,0,1-.63.35,2.73,2.73,0,0,1-.92.15H22.5a2.39,2.39,0,0,1-1.75-.55,2.39,2.39,0,0,1-.55-1.75V32.5a2.15,2.15,0,0,0-.3-1.23,1.27,1.27,0,0,0-1.1-.42h-.05V34.7a3.22,3.22,0,0,1-.17,1.1A1.93,1.93,0,0,1,18.05,36.55Zm-1.6,0a1.93,1.93,0,0,0,1.38-.42,1.93,1.93,0,0,0,.42-1.38V24.9h7a1.82,1.82,0,0,1,1.47.52,2.54,2.54,0,0,1,.43,1.63V34.7A1.54,1.54,0,0,0,29,36.5H36.7a1.53,1.53,0,0,0,1.8-1.8V24.1a7.4,7.4,0,0,0-1.67-5.05,6.58,6.58,0,0,0-4.38-2.2,3.87,3.87,0,0,0,2.17-2.12,9.14,9.14,0,0,0,.63-3.58V8.85a8.55,8.55,0,0,0-2.13-6C31.71,1.27,29.13.5,25.4.5H8.75A1.89,1.89,0,0,0,7.38.92,1.89,1.89,0,0,0,7,2.3V34.7a1.89,1.89,0,0,0,.43,1.38,1.89,1.89,0,0,0,1.37.42ZM12.85,32h-.5V5h11.4a5.38,5.38,0,0,1,4.3,1.62,6.07,6.07,0,0,1,1.4,4.08v3.45a10.09,10.09,0,0,1-.6,3.77,3.5,3.5,0,0,1-2.4,2H27a6.53,6.53,0,0,1,4.55,1.38,5.11,5.11,0,0,1,1.5,4V32h-.5V25.3a4.74,4.74,0,0,0-1.35-3.68A6.14,6.14,0,0,0,27,20.4H12.85ZM23.75,5.5H12.85V20h10.9c2.07,0,3.45-.5,4.15-1.5A7.35,7.35,0,0,0,29,14.2V10.7A5.44,5.44,0,0,0,27.67,7,4.92,4.92,0,0,0,23.75,5.5Zm-5.5,4H22a2,2,0,0,1,1.75.67,3,3,0,0,1,.45,1.68v1.7a3,3,0,0,1-.45,1.68A2,2,0,0,1,22,15.9H18.25Z" fill="#3f3f3f"/><path d="M61.45,42.45H38.25a2,2,0,0,1-2.3-2.3V7.75a3.22,3.22,0,0,1,.17-1.1,1.93,1.93,0,0,1,.53-.75L43.1.45a2.2,2.2,0,0,1,.67-.33A3.48,3.48,0,0,1,44.7,0H67.9a2.39,2.39,0,0,1,1.75.55A2.39,2.39,0,0,1,70.2,2.3V8.15A3,3,0,0,1,70,9.25a1.81,1.81,0,0,1-.52.75l-4.3,3.55a1.54,1.54,0,0,1,.72.75,3.19,3.19,0,0,1,.23,1.3V21a3,3,0,0,1-.18,1.1,1.81,1.81,0,0,1-.52.75L61,26.55h6.9a2.39,2.39,0,0,1,1.75.55,2.39,2.39,0,0,1,.55,1.75V34.7A3,3,0,0,1,70,35.8a1.81,1.81,0,0,1-.52.75L63,42a1.66,1.66,0,0,1-.63.35A2.73,2.73,0,0,1,61.45,42.45Zm6.45-6a1.54,1.54,0,0,0,1.8-1.8V28.85a1.55,1.55,0,0,0-1.8-1.8H54.1v-4.3h9.75a1.89,1.89,0,0,0,1.37-.42A1.89,1.89,0,0,0,65.65,21V15.6a1.85,1.85,0,0,0-.43-1.37,1.85,1.85,0,0,0-1.37-.43H54.1V10H67.9a1.85,1.85,0,0,0,1.37-.43,1.85,1.85,0,0,0,.43-1.37V2.3A1.89,1.89,0,0,0,69.27.92,1.89,1.89,0,0,0,67.9.5H44.7a1.93,1.93,0,0,0-1.38.42A1.93,1.93,0,0,0,42.9,2.3V34.7a1.53,1.53,0,0,0,1.8,1.8Zm-2.7-5V32H48.35V5H65.2v.5H48.85V18.05h12.3v.5H48.85v13Z" fill="#3f3f3f"/><path d="M91.9,42.45H79.7q-6.56,0-9.68-3.4a12.51,12.51,0,0,1-3.12-8.8v-14a13.07,13.07,0,0,1,.8-4.78,8.62,8.62,0,0,1,2.35-3.37l6.5-5.45a10.09,10.09,0,0,1,4-1.95A21.89,21.89,0,0,1,86.15,0h12.2a2.39,2.39,0,0,1,1.75.55,2.39,2.39,0,0,1,.55,1.75V8.35a3,3,0,0,1-.18,1.1,1.81,1.81,0,0,1-.52.75l-6.5,5.4a1.66,1.66,0,0,1-.63.35,2.73,2.73,0,0,1-.92.15H85.75v8.45A1.62,1.62,0,0,0,86.4,26a3.43,3.43,0,0,0,1.9.43h10a2.39,2.39,0,0,1,1.75.55,2.39,2.39,0,0,1,.55,1.75v6a3,3,0,0,1-.18,1.1,1.81,1.81,0,0,1-.52.75L93.45,42a1.66,1.66,0,0,1-.63.35A2.73,2.73,0,0,1,91.9,42.45Zm6.45-6a1.54,1.54,0,0,0,1.8-1.8v-6a1.55,1.55,0,0,0-1.8-1.8h-10a3.8,3.8,0,0,1-2.3-.57,2.18,2.18,0,0,1-.75-1.83V12.65A2.32,2.32,0,0,1,86,10.77a3.59,3.59,0,0,1,2.3-.62h10a1.89,1.89,0,0,0,1.37-.42,1.89,1.89,0,0,0,.43-1.38v-6A1.89,1.89,0,0,0,99.72.92,1.89,1.89,0,0,0,98.35.5H86.15Q79.9.5,76.87,3c-2,1.69-3,4.26-3,7.73V26.3c0,3.47,1,6,3,7.7s5.11,2.5,9.28,2.5Zm-2.75-5V32H87.25c-3.23,0-5.38-.5-6.43-1.5s-1.57-2.65-1.57-4.95v-14q0-3.56,1.6-5.05T87.25,5H95.6v.5H87.25c-2.93,0-4.92.46-6,1.38s-1.55,2.47-1.55,4.67v14q0,3.25,1.5,4.6t6,1.35Z" fill="#3f3f3f"/><path d="M123.15,42.45H100a2,2,0,0,1-2.3-2.3V7.75a3.22,3.22,0,0,1,.17-1.1,1.93,1.93,0,0,1,.53-.75L104.8.45a2.2,2.2,0,0,1,.67-.33A3.48,3.48,0,0,1,106.4,0h23.2a2.39,2.39,0,0,1,1.75.55,2.39,2.39,0,0,1,.55,1.75V8.15a3,3,0,0,1-.18,1.1,1.81,1.81,0,0,1-.52.75l-4.3,3.55a1.54,1.54,0,0,1,.72.75,3.19,3.19,0,0,1,.23,1.3V21a3,3,0,0,1-.18,1.1,1.81,1.81,0,0,1-.52.75l-4.45,3.75h6.9a2.39,2.39,0,0,1,1.75.55,2.39,2.39,0,0,1,.55,1.75V34.7a3,3,0,0,1-.18,1.1,1.81,1.81,0,0,1-.52.75L124.7,42a1.66,1.66,0,0,1-.63.35A2.73,2.73,0,0,1,123.15,42.45Zm6.45-6a1.54,1.54,0,0,0,1.8-1.8V28.85a1.55,1.55,0,0,0-1.8-1.8H115.8v-4.3h9.75a1.89,1.89,0,0,0,1.37-.42,1.89,1.89,0,0,0,.43-1.38V15.6a1.85,1.85,0,0,0-.43-1.37,1.85,1.85,0,0,0-1.37-.43H115.8V10h13.8A1.85,1.85,0,0,0,131,9.52a1.85,1.85,0,0,0,.43-1.37V2.3A1.89,1.89,0,0,0,131,.92,1.89,1.89,0,0,0,129.6.5H106.4A1.93,1.93,0,0,0,105,.92a1.93,1.93,0,0,0-.42,1.38V34.7a1.53,1.53,0,0,0,1.8,1.8Zm-2.7-5V32H110.05V5H126.9v.5H110.55V18.05h12.3v.5h-12.3v13Z" fill="#3f3f3f"/><path d="M147,36.55,140.5,42a1.66,1.66,0,0,1-.63.35,2.73,2.73,0,0,1-.92.15h-7.5a2,2,0,0,1-2.3-2.3V7.75a3.22,3.22,0,0,1,.17-1.1,1.93,1.93,0,0,1,.53-.75L136.3.45A2.2,2.2,0,0,1,137,.12,3.48,3.48,0,0,1,137.9,0h5.2A4.42,4.42,0,0,1,145,.35a5,5,0,0,1,1.5,1.15l3.45,4,6-5a2.2,2.2,0,0,1,.67-.33,3.48,3.48,0,0,1,.93-.12h7.5a2.39,2.39,0,0,1,1.75.55,2.39,2.39,0,0,1,.55,1.75V34.7a3,3,0,0,1-.18,1.1,1.81,1.81,0,0,1-.52.75l-6.5,5.4a1.66,1.66,0,0,1-.63.35,2.73,2.73,0,0,1-.92.15h-7.5a2,2,0,0,1-2.3-2.3V34.2l-1.1-1.35V34.7a3,3,0,0,1-.18,1.1A1.81,1.81,0,0,1,147,36.55Zm-1.6,0a1.54,1.54,0,0,0,1.8-1.8V18.2l8.55,10.35V34.7a1.53,1.53,0,0,0,1.8,1.8h7.5a1.54,1.54,0,0,0,1.8-1.8V2.3a1.89,1.89,0,0,0-.43-1.38A1.89,1.89,0,0,0,165.05.5h-7.5a1.93,1.93,0,0,0-1.38.42,1.93,1.93,0,0,0-.42,1.38V13l-9.7-11.1a3.89,3.89,0,0,0-1.33-1A4,4,0,0,0,143.1.5h-5.2a1.93,1.93,0,0,0-1.38.42,1.93,1.93,0,0,0-.42,1.38V34.7a1.53,1.53,0,0,0,1.8,1.8ZM142.7,5.4l18.4,20.7V5h.5V32h-.5V26.85L142.2,5.65l-.13-.1a.28.28,0,0,0-.12,0,.1.1,0,0,0-.08,0,.36.36,0,0,0,0,.1V32h-.5V5.55a.54.54,0,0,1,.2-.45A.66.66,0,0,1,142,5a.6.6,0,0,1,.35.1A3.14,3.14,0,0,1,142.7,5.4Z" fill="#3f3f3f"/><path d="M183.1,42.45H175a2,2,0,0,1-2.3-2.3v-24h-6.85a2.37,2.37,0,0,1-1.75-.55,2.39,2.39,0,0,1-.55-1.75V7.75a3.22,3.22,0,0,1,.17-1.1,1.83,1.83,0,0,1,.53-.75L170.7.45a2.2,2.2,0,0,1,.67-.33A3.43,3.43,0,0,1,172.3,0h26.4a2.39,2.39,0,0,1,1.75.55A2.39,2.39,0,0,1,201,2.3V8.35a3,3,0,0,1-.18,1.1,1.81,1.81,0,0,1-.52.75l-6.5,5.4a1.66,1.66,0,0,1-.63.35,2.73,2.73,0,0,1-.92.15h-.4V34.7a3,3,0,0,1-.18,1.1,1.81,1.81,0,0,1-.52.75l-6.5,5.4a1.74,1.74,0,0,1-.63.35A2.73,2.73,0,0,1,183.1,42.45Zm6.45-6a1.54,1.54,0,0,0,1.8-1.8V10.15h7.35a1.89,1.89,0,0,0,1.37-.42,1.89,1.89,0,0,0,.43-1.38v-6a1.89,1.89,0,0,0-.43-1.38A1.89,1.89,0,0,0,198.7.5H172.3a1.93,1.93,0,0,0-1.38.42,1.93,1.93,0,0,0-.42,1.38V8.35a1.93,1.93,0,0,0,.42,1.38,1.93,1.93,0,0,0,1.38.42h7.35V34.7a1.53,1.53,0,0,0,1.8,1.8Zm-4.3-4.5V5.5H175V5h21v.5H185.75V32Z" fill="#3f3f3f"/><path d="M16.7,36.5H9a1.93,1.93,0,0,1-1.38-.42A1.93,1.93,0,0,1,7.2,34.7V2.3A1.93,1.93,0,0,1,7.62.92,1.93,1.93,0,0,1,9,.5H25.65c3.73,0,6.31.77,7.73,2.33a8.59,8.59,0,0,1,2.12,6v2.3a9.33,9.33,0,0,1-.62,3.58,3.91,3.91,0,0,1-2.18,2.12,6.58,6.58,0,0,1,4.38,2.2,7.4,7.4,0,0,1,1.67,5.05V34.7A1.53,1.53,0,0,1,37,36.5H29.2a1.54,1.54,0,0,1-1.8-1.8V27.05A2.54,2.54,0,0,0,27,25.42a1.82,1.82,0,0,0-1.47-.52h-7v9.8a1.93,1.93,0,0,1-.42,1.38A1.93,1.93,0,0,1,16.7,36.5ZM13.1,32V20.4H27.25a6.14,6.14,0,0,1,4.2,1.22A4.74,4.74,0,0,1,32.8,25.3V32h.5V25.3a5.11,5.11,0,0,0-1.5-4A6.53,6.53,0,0,0,27.25,20H26.7a3.5,3.5,0,0,0,2.4-2,10.09,10.09,0,0,0,.6-3.77V10.7a6.07,6.07,0,0,0-1.4-4.08A5.38,5.38,0,0,0,24,5H12.6V32ZM24,5.5A4.92,4.92,0,0,1,27.92,7,5.44,5.44,0,0,1,29.2,10.7v3.5a7.35,7.35,0,0,1-1.05,4.25c-.7,1-2.08,1.5-4.15,1.5H13.1V5.5Zm-5.5,4v6.4h3.75A2,2,0,0,0,24,15.23a3,3,0,0,0,.45-1.68v-1.7A3,3,0,0,0,24,10.17a2,2,0,0,0-1.75-.67Z" fill="#fff"/><path d="M67.85,36.5H44.65a1.53,1.53,0,0,1-1.8-1.8V2.3A1.93,1.93,0,0,1,43.27.92,1.93,1.93,0,0,1,44.65.5h23.2a1.89,1.89,0,0,1,1.37.42,1.89,1.89,0,0,1,.43,1.38V8.15a1.85,1.85,0,0,1-.43,1.37,1.85,1.85,0,0,1-1.37.43H54.05V13.8H63.8a1.85,1.85,0,0,1,1.37.43,1.85,1.85,0,0,1,.43,1.37V21a1.89,1.89,0,0,1-.43,1.38,1.89,1.89,0,0,1-1.37.42H54.05v4.3h13.8a1.55,1.55,0,0,1,1.8,1.8V34.7a1.54,1.54,0,0,1-1.8,1.8Zm-2.7-5H48.8V18.55H61.1v-.5H48.8V5.5H65.15V5H48.3V32H65.15Z" fill="#fff"/><path d="M98.25,36.5H86.05q-6.26,0-9.28-2.5c-2-1.67-3-4.23-3-7.7V10.75c0-3.47,1-6,3-7.73S81.88.5,86.05.5h12.2a1.89,1.89,0,0,1,1.37.42,1.89,1.89,0,0,1,.43,1.38V8.35a1.89,1.89,0,0,1-.43,1.38,1.89,1.89,0,0,1-1.37.42h-10a3.59,3.59,0,0,0-2.3.62,2.32,2.32,0,0,0-.75,1.88v11.9a2.18,2.18,0,0,0,.75,1.83,3.8,3.8,0,0,0,2.3.57h10a1.55,1.55,0,0,1,1.8,1.8v6a1.54,1.54,0,0,1-1.8,1.8Zm-2.75-5H87.15q-4.5,0-6-1.35t-1.5-4.6v-14q0-3.3,1.55-4.67c1-.92,3-1.38,6-1.38H95.5V5H87.15q-4.8,0-6.4,1.5t-1.6,5.05v14q0,3.45,1.57,4.95c1,1,3.2,1.5,6.43,1.5H95.5Z" fill="#fff"/><path d="M129.7,36.5H106.5a1.53,1.53,0,0,1-1.8-1.8V2.3a1.93,1.93,0,0,1,.42-1.38A1.93,1.93,0,0,1,106.5.5h23.2a1.89,1.89,0,0,1,1.37.42,1.89,1.89,0,0,1,.43,1.38V8.15a1.85,1.85,0,0,1-.43,1.37,1.85,1.85,0,0,1-1.37.43H115.9V13.8h9.75a1.85,1.85,0,0,1,1.37.43,1.85,1.85,0,0,1,.43,1.37V21a1.89,1.89,0,0,1-.43,1.38,1.89,1.89,0,0,1-1.37.42H115.9v4.3h13.8a1.55,1.55,0,0,1,1.8,1.8V34.7a1.54,1.54,0,0,1-1.8,1.8Zm-2.7-5H110.65V18.55H123v-.5h-12.3V5.5H127V5H110.15V32H127Z" fill="#fff"/><path d="M145.2,36.5h-7.5a1.53,1.53,0,0,1-1.8-1.8V2.3a1.93,1.93,0,0,1,.42-1.38A1.93,1.93,0,0,1,137.7.5h5.2a4,4,0,0,1,1.62.3,3.89,3.89,0,0,1,1.33,1.05l9.7,11.1V2.3A1.93,1.93,0,0,1,156,.92,1.93,1.93,0,0,1,157.35.5h7.5a1.89,1.89,0,0,1,1.37.42,1.89,1.89,0,0,1,.43,1.38V34.7a1.54,1.54,0,0,1-1.8,1.8h-7.5a1.53,1.53,0,0,1-1.8-1.8V28.55L147,18.2V34.7a1.54,1.54,0,0,1-1.8,1.8ZM142.5,5.4a3.14,3.14,0,0,0-.4-.35.6.6,0,0,0-.35-.1.66.66,0,0,0-.4.15.54.54,0,0,0-.2.45V32h.5V5.65a.36.36,0,0,1,0-.1.1.1,0,0,1,.08,0,.28.28,0,0,1,.12,0l.13.1,18.9,21.2V32h.5V5h-.5V26.1Z" fill="#fff"/><path d="M189.55,36.5h-8.1a1.53,1.53,0,0,1-1.8-1.8V10.15H172.3a1.93,1.93,0,0,1-1.38-.42,1.93,1.93,0,0,1-.42-1.38v-6a1.93,1.93,0,0,1,.42-1.38A1.93,1.93,0,0,1,172.3.5h26.4a1.89,1.89,0,0,1,1.37.42,1.89,1.89,0,0,1,.43,1.38V8.35a1.89,1.89,0,0,1-.43,1.38,1.89,1.89,0,0,1-1.37.42h-7.35V34.7a1.54,1.54,0,0,1-1.8,1.8Zm-4.3-4.5h.5V5.5H196V5H175v.5h10.25Z" fill="#fff"/></svg>